<mxfile host="app.diagrams.net" agent="Mozilla/5.0 (Macintosh; Intel Mac OS X 10_15_7) AppleWebKit/537.36 (KHTML, like Gecko) Chrome/139.0.0.0 Safari/537.36" version="28.1.0">
  <diagram name="Page-1" id="sCaE4-Tl27vQnfj8YKub">
    <mxGraphModel grid="1" page="1" gridSize="10" guides="1" tooltips="1" connect="1" arrows="1" fold="1" pageScale="1" pageWidth="850" pageHeight="1100" math="0" shadow="0">
      <root>
        <mxCell id="0" />
        <mxCell id="1" parent="0" />
        <mxCell id="UPUXFvGThNq-PZ71ympV-1" value="START" style="ellipse;whiteSpace=wrap;html=1;fillColor=#f5f5f5;fontColor=#333333;strokeColor=#666666;" vertex="1" parent="1">
          <mxGeometry x="340" y="60" width="120" height="80" as="geometry" />
        </mxCell>
        <mxCell id="UPUXFvGThNq-PZ71ympV-3" value="&lt;span id=&quot;docs-internal-guid-52f20681-7fff-5bf1-94a9-c38a228cd940&quot;&gt;&lt;p style=&quot;line-height:1.38;margin-top:0pt;margin-bottom:0pt;&quot; dir=&quot;ltr&quot;&gt;&lt;span style=&quot;font-size: 11pt; font-family: Arial, sans-serif; background-color: transparent; font-variant-numeric: normal; font-variant-east-asian: normal; font-variant-alternates: normal; font-variant-position: normal; font-variant-emoji: normal; vertical-align: baseline; white-space-collapse: preserve;&quot;&gt;&lt;br&gt;&lt;/span&gt;&lt;/p&gt;&lt;p style=&quot;line-height:1.38;margin-top:0pt;margin-bottom:0pt;&quot; dir=&quot;ltr&quot;&gt;&lt;span style=&quot;font-size: 11pt; font-family: Arial, sans-serif; background-color: transparent; font-variant-numeric: normal; font-variant-east-asian: normal; font-variant-alternates: normal; font-variant-position: normal; font-variant-emoji: normal; vertical-align: baseline; white-space-collapse: preserve;&quot;&gt;initialize DRIV, PASS, BELTD, BELTP, IGN status&lt;/span&gt;&lt;/p&gt;&lt;div&gt;&lt;span style=&quot;font-size: 11pt; font-family: Arial, sans-serif; background-color: transparent; font-variant-numeric: normal; font-variant-east-asian: normal; font-variant-alternates: normal; font-variant-position: normal; font-variant-emoji: normal; vertical-align: baseline; white-space-collapse: preserve;&quot;&gt;&lt;br&gt;&lt;/span&gt;&lt;/div&gt;&lt;/span&gt;" style="rounded=0;whiteSpace=wrap;html=1;fillColor=#dae8fc;strokeColor=#6c8ebf;" vertex="1" parent="1">
          <mxGeometry x="315" y="200" width="170" height="90" as="geometry" />
        </mxCell>
        <mxCell id="UPUXFvGThNq-PZ71ympV-4" value="&lt;b id=&quot;docs-internal-guid-70f5682f-7fff-20d6-1cc6-bcc75c5844de&quot; style=&quot;font-weight:normal;&quot;&gt;&lt;font style=&quot;font-size: 11px; color: light-dark(rgb(207, 207, 207), rgb(237, 237, 237));&quot;&gt;&lt;br&gt;&lt;p style=&quot;line-height: 1.38; margin-top: 0pt; margin-bottom: 0pt;&quot; dir=&quot;ltr&quot;&gt;&lt;span style=&quot;font-family: Arial, sans-serif; background-color: transparent; font-weight: 400; font-style: normal; font-variant: normal; text-decoration: none; vertical-align: baseline; white-space: pre-wrap;&quot;&gt;IF (DRIV . ～PASS . ～BELTD . ～BELTP . IGN) OR&lt;/span&gt;&lt;/p&gt;&lt;p style=&quot;line-height: 1.38; margin-top: 0pt; margin-bottom: 0pt;&quot; dir=&quot;ltr&quot;&gt;&lt;span style=&quot;font-family: Arial, sans-serif; background-color: transparent; font-weight: 400; font-style: normal; font-variant: normal; text-decoration: none; vertical-align: baseline; white-space: pre-wrap;&quot;&gt;(DRIV. ～PASS. ～BELTD. BELTP. IGN) OR&lt;/span&gt;&lt;/p&gt;&lt;p style=&quot;line-height: 1.38; margin-top: 0pt; margin-bottom: 0pt;&quot; dir=&quot;ltr&quot;&gt;&lt;span style=&quot;font-family: Arial, sans-serif; background-color: transparent; font-weight: 400; font-style: normal; font-variant: normal; text-decoration: none; vertical-align: baseline; white-space: pre-wrap;&quot;&gt;(DRIV. PASS. ～BELTD . ～BELTP. IGN) OR&lt;/span&gt;&lt;/p&gt;&lt;p style=&quot;line-height: 1.38; margin-top: 0pt; margin-bottom: 0pt;&quot; dir=&quot;ltr&quot;&gt;&lt;span style=&quot;font-family: Arial, sans-serif; background-color: transparent; font-weight: 400; font-style: normal; font-variant: normal; text-decoration: none; vertical-align: baseline; white-space: pre-wrap;&quot;&gt;(DRIV. PASS. ～BELTD. BELTP. IGN) OR&lt;/span&gt;&lt;/p&gt;&lt;p style=&quot;line-height: 1.38; margin-top: 0pt; margin-bottom: 0pt;&quot; dir=&quot;ltr&quot;&gt;&lt;span style=&quot;font-family: Arial, sans-serif; background-color: transparent; font-weight: 400; font-style: normal; font-variant: normal; text-decoration: none; vertical-align: baseline; white-space: pre-wrap;&quot;&gt;(DRIV. PASS. BELTD. ～BELTP. IGN)&lt;/span&gt;&lt;/p&gt;&lt;/font&gt;&lt;/b&gt;" style="rhombus;whiteSpace=wrap;html=1;fillColor=#0050ef;fontColor=#ffffff;strokeColor=#001DBC;" vertex="1" parent="1">
          <mxGeometry x="227.5" y="395" width="345" height="310" as="geometry" />
        </mxCell>
        <mxCell id="UPUXFvGThNq-PZ71ympV-5" value="" style="endArrow=classic;html=1;rounded=0;exitX=0.5;exitY=1;exitDx=0;exitDy=0;entryX=0.5;entryY=0;entryDx=0;entryDy=0;" edge="1" parent="1" source="UPUXFvGThNq-PZ71ympV-3" target="UPUXFvGThNq-PZ71ympV-4">
          <mxGeometry width="50" height="50" relative="1" as="geometry">
            <mxPoint x="400" y="450" as="sourcePoint" />
            <mxPoint x="450" y="400" as="targetPoint" />
          </mxGeometry>
        </mxCell>
        <mxCell id="UPUXFvGThNq-PZ71ympV-7" value="" style="endArrow=classic;html=1;rounded=0;exitX=1;exitY=0.5;exitDx=0;exitDy=0;" edge="1" parent="1" source="UPUXFvGThNq-PZ71ympV-4">
          <mxGeometry width="50" height="50" relative="1" as="geometry">
            <mxPoint x="400" y="680" as="sourcePoint" />
            <mxPoint x="690" y="550" as="targetPoint" />
          </mxGeometry>
        </mxCell>
        <mxCell id="UPUXFvGThNq-PZ71ympV-8" value="" style="endArrow=classic;html=1;rounded=0;exitX=0.5;exitY=1;exitDx=0;exitDy=0;" edge="1" parent="1" source="UPUXFvGThNq-PZ71ympV-4">
          <mxGeometry width="50" height="50" relative="1" as="geometry">
            <mxPoint x="400" y="680" as="sourcePoint" />
            <mxPoint x="400" y="800" as="targetPoint" />
          </mxGeometry>
        </mxCell>
        <mxCell id="UPUXFvGThNq-PZ71ympV-10" value="ALARM IS ON" style="rounded=0;whiteSpace=wrap;html=1;fillColor=#f8cecc;strokeColor=#b85450;" vertex="1" parent="1">
          <mxGeometry x="690" y="520" width="120" height="60" as="geometry" />
        </mxCell>
        <mxCell id="UPUXFvGThNq-PZ71ympV-11" value="ALARM IS OFF" style="rounded=0;whiteSpace=wrap;html=1;fillColor=#d5e8d4;strokeColor=#82b366;" vertex="1" parent="1">
          <mxGeometry x="340" y="800" width="120" height="60" as="geometry" />
        </mxCell>
        <mxCell id="UPUXFvGThNq-PZ71ympV-12" value="YES" style="text;html=1;align=center;verticalAlign=middle;whiteSpace=wrap;rounded=0;" vertex="1" parent="1">
          <mxGeometry x="570" y="520" width="60" height="30" as="geometry" />
        </mxCell>
        <mxCell id="UPUXFvGThNq-PZ71ympV-14" value="NO" style="text;html=1;align=center;verticalAlign=middle;whiteSpace=wrap;rounded=0;" vertex="1" parent="1">
          <mxGeometry x="400" y="720" width="60" height="30" as="geometry" />
        </mxCell>
        <mxCell id="UPUXFvGThNq-PZ71ympV-15" value="" style="endArrow=classic;html=1;rounded=0;exitX=0.5;exitY=1;exitDx=0;exitDy=0;entryX=1;entryY=0.5;entryDx=0;entryDy=0;" edge="1" parent="1" source="UPUXFvGThNq-PZ71ympV-10" target="UPUXFvGThNq-PZ71ympV-19">
          <mxGeometry width="50" height="50" relative="1" as="geometry">
            <mxPoint x="400" y="820" as="sourcePoint" />
            <mxPoint x="460" y="1000" as="targetPoint" />
            <Array as="points">
              <mxPoint x="750" y="980" />
            </Array>
          </mxGeometry>
        </mxCell>
        <mxCell id="UPUXFvGThNq-PZ71ympV-17" value="" style="endArrow=classic;html=1;rounded=0;exitX=0.5;exitY=1;exitDx=0;exitDy=0;entryX=0.5;entryY=0;entryDx=0;entryDy=0;" edge="1" parent="1" source="UPUXFvGThNq-PZ71ympV-1" target="UPUXFvGThNq-PZ71ympV-3">
          <mxGeometry width="50" height="50" relative="1" as="geometry">
            <mxPoint x="400" y="300" as="sourcePoint" />
            <mxPoint x="450" y="250" as="targetPoint" />
          </mxGeometry>
        </mxCell>
        <mxCell id="UPUXFvGThNq-PZ71ympV-18" value="" style="endArrow=classic;html=1;rounded=0;exitX=0.5;exitY=1;exitDx=0;exitDy=0;entryX=0.5;entryY=0;entryDx=0;entryDy=0;" edge="1" parent="1" source="UPUXFvGThNq-PZ71ympV-11">
          <mxGeometry width="50" height="50" relative="1" as="geometry">
            <mxPoint x="400" y="810" as="sourcePoint" />
            <mxPoint x="400" y="960" as="targetPoint" />
          </mxGeometry>
        </mxCell>
        <mxCell id="UPUXFvGThNq-PZ71ympV-19" value="" style="ellipse;whiteSpace=wrap;html=1;aspect=fixed;fillColor=#f5f5f5;fontColor=#333333;strokeColor=#666666;" vertex="1" parent="1">
          <mxGeometry x="385" y="960" width="40" height="40" as="geometry" />
        </mxCell>
        <mxCell id="UPUXFvGThNq-PZ71ympV-20" value="END" style="ellipse;whiteSpace=wrap;html=1;fillColor=#f5f5f5;fontColor=#333333;strokeColor=#666666;" vertex="1" parent="1">
          <mxGeometry x="345" y="1070" width="120" height="80" as="geometry" />
        </mxCell>
        <mxCell id="UPUXFvGThNq-PZ71ympV-21" value="" style="endArrow=classic;html=1;rounded=0;exitX=0.5;exitY=1;exitDx=0;exitDy=0;entryX=0.5;entryY=0;entryDx=0;entryDy=0;" edge="1" parent="1" source="UPUXFvGThNq-PZ71ympV-19" target="UPUXFvGThNq-PZ71ympV-20">
          <mxGeometry width="50" height="50" relative="1" as="geometry">
            <mxPoint x="400" y="840" as="sourcePoint" />
            <mxPoint x="450" y="790" as="targetPoint" />
          </mxGeometry>
        </mxCell>
      </root>
    </mxGraphModel>
  </diagram>
</mxfile>
